<mxfile host="app.diagrams.net" modified="2024-06-20T12:42:57.174Z" agent="Mozilla/5.0 (Windows NT 10.0; Win64; x64) AppleWebKit/537.36 (KHTML, like Gecko) Chrome/126.0.0.0 Safari/537.36" etag="eZmZK2NSHSdJWa5Y3C7W" version="24.5.3" type="github">
  <diagram id="R2lEEEUBdFMjLlhIrx00" name="Page-1">
    <mxGraphModel dx="2750" dy="522" grid="1" gridSize="10" guides="1" tooltips="1" connect="1" arrows="1" fold="1" page="1" pageScale="1" pageWidth="850" pageHeight="1100" math="0" shadow="0" extFonts="Permanent Marker^https://fonts.googleapis.com/css?family=Permanent+Marker">
      <root>
        <mxCell id="0" />
        <mxCell id="1" parent="0" />
        <mxCell id="JUTJd4A7Ja9mCz1lMSgx-1" value="&amp;nbsp; id&amp;nbsp;&amp;nbsp;" style="ellipse;whiteSpace=wrap;html=1;align=center;fontStyle=4;" vertex="1" parent="1">
          <mxGeometry x="-440" y="350" width="100" height="40" as="geometry" />
        </mxCell>
        <mxCell id="JUTJd4A7Ja9mCz1lMSgx-2" style="edgeStyle=orthogonalEdgeStyle;rounded=0;orthogonalLoop=1;jettySize=auto;html=1;exitX=1;exitY=0.25;exitDx=0;exitDy=0;" edge="1" parent="1" source="JUTJd4A7Ja9mCz1lMSgx-6">
          <mxGeometry relative="1" as="geometry">
            <mxPoint x="-140" y="435" as="targetPoint" />
            <Array as="points">
              <mxPoint x="-160" y="490" />
              <mxPoint x="-160" y="435" />
            </Array>
          </mxGeometry>
        </mxCell>
        <mxCell id="JUTJd4A7Ja9mCz1lMSgx-3" style="edgeStyle=orthogonalEdgeStyle;rounded=0;orthogonalLoop=1;jettySize=auto;html=1;exitX=1;exitY=0;exitDx=0;exitDy=0;entryX=0;entryY=0.5;entryDx=0;entryDy=0;" edge="1" parent="1" source="JUTJd4A7Ja9mCz1lMSgx-6" target="JUTJd4A7Ja9mCz1lMSgx-10">
          <mxGeometry relative="1" as="geometry">
            <Array as="points">
              <mxPoint x="-180" y="480" />
              <mxPoint x="-180" y="380" />
            </Array>
          </mxGeometry>
        </mxCell>
        <mxCell id="JUTJd4A7Ja9mCz1lMSgx-4" style="edgeStyle=orthogonalEdgeStyle;rounded=0;orthogonalLoop=1;jettySize=auto;html=1;entryX=1;entryY=0.5;entryDx=0;entryDy=0;" edge="1" parent="1" source="JUTJd4A7Ja9mCz1lMSgx-6" target="JUTJd4A7Ja9mCz1lMSgx-1">
          <mxGeometry relative="1" as="geometry">
            <Array as="points">
              <mxPoint x="-260" y="400" />
              <mxPoint x="-340" y="400" />
            </Array>
          </mxGeometry>
        </mxCell>
        <mxCell id="JUTJd4A7Ja9mCz1lMSgx-5" style="edgeStyle=orthogonalEdgeStyle;rounded=0;orthogonalLoop=1;jettySize=auto;html=1;entryX=1;entryY=1;entryDx=0;entryDy=0;" edge="1" parent="1" source="JUTJd4A7Ja9mCz1lMSgx-6" target="JUTJd4A7Ja9mCz1lMSgx-7">
          <mxGeometry relative="1" as="geometry">
            <Array as="points">
              <mxPoint x="-250" y="370" />
              <mxPoint x="-325" y="370" />
            </Array>
          </mxGeometry>
        </mxCell>
        <mxCell id="JUTJd4A7Ja9mCz1lMSgx-6" value="User" style="rounded=1;arcSize=10;whiteSpace=wrap;html=1;align=center;" vertex="1" parent="1">
          <mxGeometry x="-270" y="490" width="70" height="30" as="geometry" />
        </mxCell>
        <mxCell id="JUTJd4A7Ja9mCz1lMSgx-7" value="email" style="ellipse;whiteSpace=wrap;html=1;align=center;" vertex="1" parent="1">
          <mxGeometry x="-410" y="300" width="100" height="40" as="geometry" />
        </mxCell>
        <mxCell id="JUTJd4A7Ja9mCz1lMSgx-8" value="emailVerified" style="ellipse;whiteSpace=wrap;html=1;align=center;" vertex="1" parent="1">
          <mxGeometry x="-300" y="320" width="100" height="40" as="geometry" />
        </mxCell>
        <mxCell id="JUTJd4A7Ja9mCz1lMSgx-9" value="password" style="ellipse;whiteSpace=wrap;html=1;align=center;" vertex="1" parent="1">
          <mxGeometry x="-190" y="320" width="100" height="40" as="geometry" />
        </mxCell>
        <mxCell id="JUTJd4A7Ja9mCz1lMSgx-10" value="role" style="ellipse;whiteSpace=wrap;html=1;align=center;" vertex="1" parent="1">
          <mxGeometry x="-140" y="360" width="100" height="40" as="geometry" />
        </mxCell>
        <mxCell id="JUTJd4A7Ja9mCz1lMSgx-11" value="image" style="ellipse;whiteSpace=wrap;html=1;align=center;" vertex="1" parent="1">
          <mxGeometry x="-425" y="400" width="100" height="40" as="geometry" />
        </mxCell>
        <mxCell id="JUTJd4A7Ja9mCz1lMSgx-12" value="isTowFactorEnabled" style="ellipse;whiteSpace=wrap;html=1;align=center;" vertex="1" parent="1">
          <mxGeometry x="-140" y="410" width="120" height="50" as="geometry" />
        </mxCell>
        <mxCell id="JUTJd4A7Ja9mCz1lMSgx-13" value="twoFactorConfirmation" style="ellipse;whiteSpace=wrap;html=1;align=center;" vertex="1" parent="1">
          <mxGeometry x="-140" y="470" width="130" height="50" as="geometry" />
        </mxCell>
        <mxCell id="JUTJd4A7Ja9mCz1lMSgx-14" style="edgeStyle=orthogonalEdgeStyle;rounded=0;orthogonalLoop=1;jettySize=auto;html=1;entryX=-0.01;entryY=0.589;entryDx=0;entryDy=0;entryPerimeter=0;" edge="1" parent="1" source="JUTJd4A7Ja9mCz1lMSgx-6" target="JUTJd4A7Ja9mCz1lMSgx-13">
          <mxGeometry relative="1" as="geometry" />
        </mxCell>
        <mxCell id="JUTJd4A7Ja9mCz1lMSgx-15" style="edgeStyle=orthogonalEdgeStyle;rounded=0;orthogonalLoop=1;jettySize=auto;html=1;" edge="1" parent="1" source="JUTJd4A7Ja9mCz1lMSgx-21" target="JUTJd4A7Ja9mCz1lMSgx-22">
          <mxGeometry relative="1" as="geometry" />
        </mxCell>
        <mxCell id="JUTJd4A7Ja9mCz1lMSgx-16" style="edgeStyle=orthogonalEdgeStyle;rounded=0;orthogonalLoop=1;jettySize=auto;html=1;exitX=0.25;exitY=0;exitDx=0;exitDy=0;entryX=1;entryY=0.5;entryDx=0;entryDy=0;" edge="1" parent="1" source="JUTJd4A7Ja9mCz1lMSgx-21" target="JUTJd4A7Ja9mCz1lMSgx-23">
          <mxGeometry relative="1" as="geometry">
            <Array as="points">
              <mxPoint x="-770" y="690" />
              <mxPoint x="-770" y="620" />
            </Array>
          </mxGeometry>
        </mxCell>
        <mxCell id="JUTJd4A7Ja9mCz1lMSgx-17" style="edgeStyle=orthogonalEdgeStyle;rounded=0;orthogonalLoop=1;jettySize=auto;html=1;exitX=0.5;exitY=0;exitDx=0;exitDy=0;entryX=0.66;entryY=1.014;entryDx=0;entryDy=0;entryPerimeter=0;" edge="1" parent="1" source="JUTJd4A7Ja9mCz1lMSgx-21" target="JUTJd4A7Ja9mCz1lMSgx-25">
          <mxGeometry relative="1" as="geometry">
            <Array as="points">
              <mxPoint x="-730" y="570" />
              <mxPoint x="-774" y="570" />
            </Array>
          </mxGeometry>
        </mxCell>
        <mxCell id="JUTJd4A7Ja9mCz1lMSgx-18" style="edgeStyle=orthogonalEdgeStyle;rounded=0;orthogonalLoop=1;jettySize=auto;html=1;exitX=0.25;exitY=1;exitDx=0;exitDy=0;entryX=1;entryY=0;entryDx=0;entryDy=0;" edge="1" parent="1" source="JUTJd4A7Ja9mCz1lMSgx-21" target="JUTJd4A7Ja9mCz1lMSgx-33">
          <mxGeometry relative="1" as="geometry" />
        </mxCell>
        <mxCell id="JUTJd4A7Ja9mCz1lMSgx-19" style="edgeStyle=orthogonalEdgeStyle;rounded=0;orthogonalLoop=1;jettySize=auto;html=1;exitX=1;exitY=0;exitDx=0;exitDy=0;entryX=0;entryY=0.5;entryDx=0;entryDy=0;" edge="1" parent="1" source="JUTJd4A7Ja9mCz1lMSgx-21" target="JUTJd4A7Ja9mCz1lMSgx-26">
          <mxGeometry relative="1" as="geometry" />
        </mxCell>
        <mxCell id="JUTJd4A7Ja9mCz1lMSgx-20" style="edgeStyle=orthogonalEdgeStyle;rounded=0;orthogonalLoop=1;jettySize=auto;html=1;entryX=0;entryY=0;entryDx=0;entryDy=0;" edge="1" parent="1" source="JUTJd4A7Ja9mCz1lMSgx-21" target="JUTJd4A7Ja9mCz1lMSgx-30">
          <mxGeometry relative="1" as="geometry">
            <Array as="points">
              <mxPoint x="-695" y="770" />
              <mxPoint x="-695" y="770" />
            </Array>
          </mxGeometry>
        </mxCell>
        <mxCell id="JUTJd4A7Ja9mCz1lMSgx-21" value="Account" style="rounded=1;arcSize=10;whiteSpace=wrap;html=1;align=center;" vertex="1" parent="1">
          <mxGeometry x="-780" y="690" width="100" height="40" as="geometry" />
        </mxCell>
        <mxCell id="JUTJd4A7Ja9mCz1lMSgx-22" value="&amp;nbsp; id&amp;nbsp;&amp;nbsp;" style="ellipse;whiteSpace=wrap;html=1;align=center;fontStyle=4;" vertex="1" parent="1">
          <mxGeometry x="-950" y="650" width="100" height="40" as="geometry" />
        </mxCell>
        <mxCell id="JUTJd4A7Ja9mCz1lMSgx-23" value="&lt;span style=&quot;border-bottom: 1px dotted&quot;&gt;userId&lt;/span&gt;" style="ellipse;whiteSpace=wrap;html=1;align=center;" vertex="1" parent="1">
          <mxGeometry x="-930" y="600" width="100" height="40" as="geometry" />
        </mxCell>
        <mxCell id="JUTJd4A7Ja9mCz1lMSgx-24" value="provider" style="ellipse;whiteSpace=wrap;html=1;align=center;" vertex="1" parent="1">
          <mxGeometry x="-900" y="540" width="100" height="40" as="geometry" />
        </mxCell>
        <mxCell id="JUTJd4A7Ja9mCz1lMSgx-25" value="type" style="ellipse;whiteSpace=wrap;html=1;align=center;" vertex="1" parent="1">
          <mxGeometry x="-840" y="500" width="100" height="40" as="geometry" />
        </mxCell>
        <mxCell id="JUTJd4A7Ja9mCz1lMSgx-26" value="expire_at" style="ellipse;whiteSpace=wrap;html=1;align=center;" vertex="1" parent="1">
          <mxGeometry x="-630" y="650" width="100" height="40" as="geometry" />
        </mxCell>
        <mxCell id="JUTJd4A7Ja9mCz1lMSgx-27" value="token_type" style="ellipse;whiteSpace=wrap;html=1;align=center;" vertex="1" parent="1">
          <mxGeometry x="-610" y="750" width="100" height="40" as="geometry" />
        </mxCell>
        <mxCell id="JUTJd4A7Ja9mCz1lMSgx-28" value="access_token" style="ellipse;whiteSpace=wrap;html=1;align=center;" vertex="1" parent="1">
          <mxGeometry x="-665" y="550" width="100" height="40" as="geometry" />
        </mxCell>
        <mxCell id="JUTJd4A7Ja9mCz1lMSgx-29" value="providerAccountId" style="ellipse;whiteSpace=wrap;html=1;align=center;" vertex="1" parent="1">
          <mxGeometry x="-750" y="520" width="100" height="40" as="geometry" />
        </mxCell>
        <mxCell id="JUTJd4A7Ja9mCz1lMSgx-30" value="scope" style="ellipse;whiteSpace=wrap;html=1;align=center;" vertex="1" parent="1">
          <mxGeometry x="-710" y="780" width="100" height="40" as="geometry" />
        </mxCell>
        <mxCell id="JUTJd4A7Ja9mCz1lMSgx-31" value="refresh_token" style="ellipse;whiteSpace=wrap;html=1;align=center;" vertex="1" parent="1">
          <mxGeometry x="-650" y="600" width="100" height="40" as="geometry" />
        </mxCell>
        <mxCell id="JUTJd4A7Ja9mCz1lMSgx-32" value="id_token" style="ellipse;whiteSpace=wrap;html=1;align=center;" vertex="1" parent="1">
          <mxGeometry x="-950" y="760" width="100" height="40" as="geometry" />
        </mxCell>
        <mxCell id="JUTJd4A7Ja9mCz1lMSgx-33" value="session_state" style="ellipse;whiteSpace=wrap;html=1;align=center;" vertex="1" parent="1">
          <mxGeometry x="-840" y="780" width="100" height="40" as="geometry" />
        </mxCell>
        <mxCell id="JUTJd4A7Ja9mCz1lMSgx-34" style="edgeStyle=orthogonalEdgeStyle;rounded=0;orthogonalLoop=1;jettySize=auto;html=1;exitX=0.75;exitY=0;exitDx=0;exitDy=0;entryX=1;entryY=1;entryDx=0;entryDy=0;" edge="1" parent="1" source="JUTJd4A7Ja9mCz1lMSgx-21" target="JUTJd4A7Ja9mCz1lMSgx-24">
          <mxGeometry relative="1" as="geometry">
            <Array as="points">
              <mxPoint x="-750" y="690" />
              <mxPoint x="-750" y="590" />
              <mxPoint x="-815" y="590" />
            </Array>
          </mxGeometry>
        </mxCell>
        <mxCell id="JUTJd4A7Ja9mCz1lMSgx-35" style="edgeStyle=orthogonalEdgeStyle;rounded=0;orthogonalLoop=1;jettySize=auto;html=1;entryX=0.037;entryY=0.771;entryDx=0;entryDy=0;entryPerimeter=0;exitX=0.803;exitY=-0.005;exitDx=0;exitDy=0;exitPerimeter=0;" edge="1" parent="1" source="JUTJd4A7Ja9mCz1lMSgx-21" target="JUTJd4A7Ja9mCz1lMSgx-28">
          <mxGeometry relative="1" as="geometry">
            <Array as="points">
              <mxPoint x="-700" y="620" />
              <mxPoint x="-661" y="620" />
            </Array>
            <mxPoint x="-690" y="690" as="sourcePoint" />
          </mxGeometry>
        </mxCell>
        <mxCell id="JUTJd4A7Ja9mCz1lMSgx-36" style="edgeStyle=orthogonalEdgeStyle;rounded=0;orthogonalLoop=1;jettySize=auto;html=1;exitX=1;exitY=1;exitDx=0;exitDy=0;entryX=0.019;entryY=0.414;entryDx=0;entryDy=0;entryPerimeter=0;" edge="1" parent="1" source="JUTJd4A7Ja9mCz1lMSgx-21" target="JUTJd4A7Ja9mCz1lMSgx-27">
          <mxGeometry relative="1" as="geometry">
            <Array as="points">
              <mxPoint x="-680" y="750" />
              <mxPoint x="-608" y="750" />
            </Array>
          </mxGeometry>
        </mxCell>
        <mxCell id="JUTJd4A7Ja9mCz1lMSgx-37" style="edgeStyle=orthogonalEdgeStyle;rounded=0;orthogonalLoop=1;jettySize=auto;html=1;exitX=0;exitY=1;exitDx=0;exitDy=0;entryX=1;entryY=0.25;entryDx=0;entryDy=0;entryPerimeter=0;" edge="1" parent="1" source="JUTJd4A7Ja9mCz1lMSgx-21" target="JUTJd4A7Ja9mCz1lMSgx-32">
          <mxGeometry relative="1" as="geometry" />
        </mxCell>
        <mxCell id="JUTJd4A7Ja9mCz1lMSgx-38" style="edgeStyle=orthogonalEdgeStyle;rounded=0;orthogonalLoop=1;jettySize=auto;html=1;exitX=0;exitY=0.5;exitDx=0;exitDy=0;entryX=1;entryY=0.5;entryDx=0;entryDy=0;" edge="1" parent="1" source="JUTJd4A7Ja9mCz1lMSgx-41" target="JUTJd4A7Ja9mCz1lMSgx-44">
          <mxGeometry relative="1" as="geometry" />
        </mxCell>
        <mxCell id="JUTJd4A7Ja9mCz1lMSgx-39" style="edgeStyle=orthogonalEdgeStyle;rounded=0;orthogonalLoop=1;jettySize=auto;html=1;exitX=0.25;exitY=0;exitDx=0;exitDy=0;entryX=1;entryY=1;entryDx=0;entryDy=0;" edge="1" parent="1" source="JUTJd4A7Ja9mCz1lMSgx-41" target="JUTJd4A7Ja9mCz1lMSgx-42">
          <mxGeometry relative="1" as="geometry" />
        </mxCell>
        <mxCell id="JUTJd4A7Ja9mCz1lMSgx-40" style="edgeStyle=orthogonalEdgeStyle;rounded=0;orthogonalLoop=1;jettySize=auto;html=1;exitX=0.75;exitY=0;exitDx=0;exitDy=0;entryX=0;entryY=0.5;entryDx=0;entryDy=0;" edge="1" parent="1" source="JUTJd4A7Ja9mCz1lMSgx-41" target="JUTJd4A7Ja9mCz1lMSgx-45">
          <mxGeometry relative="1" as="geometry" />
        </mxCell>
        <mxCell id="JUTJd4A7Ja9mCz1lMSgx-41" value="session" style="rounded=1;arcSize=10;whiteSpace=wrap;html=1;align=center;" vertex="1" parent="1">
          <mxGeometry x="-700" y="260" width="100" height="40" as="geometry" />
        </mxCell>
        <mxCell id="JUTJd4A7Ja9mCz1lMSgx-42" value="sessionToken" style="ellipse;whiteSpace=wrap;html=1;align=center;" vertex="1" parent="1">
          <mxGeometry x="-790" y="180" width="100" height="40" as="geometry" />
        </mxCell>
        <mxCell id="JUTJd4A7Ja9mCz1lMSgx-43" value="expires" style="ellipse;whiteSpace=wrap;html=1;align=center;" vertex="1" parent="1">
          <mxGeometry x="-680" y="160" width="100" height="40" as="geometry" />
        </mxCell>
        <mxCell id="JUTJd4A7Ja9mCz1lMSgx-44" value="&amp;nbsp; id&amp;nbsp;&amp;nbsp;" style="ellipse;whiteSpace=wrap;html=1;align=center;fontStyle=4;" vertex="1" parent="1">
          <mxGeometry x="-850" y="220" width="100" height="40" as="geometry" />
        </mxCell>
        <mxCell id="JUTJd4A7Ja9mCz1lMSgx-45" value="&lt;span style=&quot;border-bottom: 1px dotted&quot;&gt;userId&lt;/span&gt;" style="ellipse;whiteSpace=wrap;html=1;align=center;" vertex="1" parent="1">
          <mxGeometry x="-590" y="200" width="100" height="40" as="geometry" />
        </mxCell>
        <mxCell id="JUTJd4A7Ja9mCz1lMSgx-46" style="edgeStyle=orthogonalEdgeStyle;rounded=0;orthogonalLoop=1;jettySize=auto;html=1;entryX=0.3;entryY=1;entryDx=0;entryDy=0;entryPerimeter=0;" edge="1" parent="1" source="JUTJd4A7Ja9mCz1lMSgx-41" target="JUTJd4A7Ja9mCz1lMSgx-43">
          <mxGeometry relative="1" as="geometry" />
        </mxCell>
        <mxCell id="JUTJd4A7Ja9mCz1lMSgx-47" style="edgeStyle=orthogonalEdgeStyle;rounded=0;orthogonalLoop=1;jettySize=auto;html=1;exitX=1;exitY=0.25;exitDx=0;exitDy=0;entryX=0;entryY=0.5;entryDx=0;entryDy=0;" edge="1" parent="1" source="JUTJd4A7Ja9mCz1lMSgx-48" target="JUTJd4A7Ja9mCz1lMSgx-52">
          <mxGeometry relative="1" as="geometry" />
        </mxCell>
        <mxCell id="JUTJd4A7Ja9mCz1lMSgx-48" value="verificationToken" style="rounded=1;arcSize=10;whiteSpace=wrap;html=1;align=center;" vertex="1" parent="1">
          <mxGeometry x="-1490" y="280" width="100" height="40" as="geometry" />
        </mxCell>
        <mxCell id="JUTJd4A7Ja9mCz1lMSgx-49" value="email" style="ellipse;whiteSpace=wrap;html=1;align=center;" vertex="1" parent="1">
          <mxGeometry x="-1605" y="250" width="100" height="40" as="geometry" />
        </mxCell>
        <mxCell id="JUTJd4A7Ja9mCz1lMSgx-50" value="token" style="ellipse;whiteSpace=wrap;html=1;align=center;" vertex="1" parent="1">
          <mxGeometry x="-1525" y="200" width="100" height="40" as="geometry" />
        </mxCell>
        <mxCell id="JUTJd4A7Ja9mCz1lMSgx-51" value="expires" style="ellipse;whiteSpace=wrap;html=1;align=center;" vertex="1" parent="1">
          <mxGeometry x="-1415" y="215" width="100" height="40" as="geometry" />
        </mxCell>
        <mxCell id="JUTJd4A7Ja9mCz1lMSgx-52" value="&amp;nbsp; &amp;nbsp;id&amp;nbsp; &amp;nbsp;" style="ellipse;whiteSpace=wrap;html=1;align=center;fontStyle=4;" vertex="1" parent="1">
          <mxGeometry x="-1375" y="270" width="100" height="40" as="geometry" />
        </mxCell>
        <mxCell id="JUTJd4A7Ja9mCz1lMSgx-53" style="edgeStyle=orthogonalEdgeStyle;rounded=0;orthogonalLoop=1;jettySize=auto;html=1;exitX=0;exitY=0.25;exitDx=0;exitDy=0;entryX=0.72;entryY=0.94;entryDx=0;entryDy=0;entryPerimeter=0;" edge="1" parent="1" source="JUTJd4A7Ja9mCz1lMSgx-48" target="JUTJd4A7Ja9mCz1lMSgx-49">
          <mxGeometry relative="1" as="geometry" />
        </mxCell>
        <mxCell id="JUTJd4A7Ja9mCz1lMSgx-54" style="edgeStyle=orthogonalEdgeStyle;rounded=0;orthogonalLoop=1;jettySize=auto;html=1;exitX=0.25;exitY=0;exitDx=0;exitDy=0;entryX=0.615;entryY=1.048;entryDx=0;entryDy=0;entryPerimeter=0;" edge="1" parent="1" source="JUTJd4A7Ja9mCz1lMSgx-48" target="JUTJd4A7Ja9mCz1lMSgx-50">
          <mxGeometry relative="1" as="geometry" />
        </mxCell>
        <mxCell id="JUTJd4A7Ja9mCz1lMSgx-55" style="edgeStyle=orthogonalEdgeStyle;rounded=0;orthogonalLoop=1;jettySize=auto;html=1;exitX=0.75;exitY=0;exitDx=0;exitDy=0;entryX=0.049;entryY=0.839;entryDx=0;entryDy=0;entryPerimeter=0;" edge="1" parent="1" source="JUTJd4A7Ja9mCz1lMSgx-48" target="JUTJd4A7Ja9mCz1lMSgx-51">
          <mxGeometry relative="1" as="geometry" />
        </mxCell>
        <mxCell id="JUTJd4A7Ja9mCz1lMSgx-56" style="edgeStyle=orthogonalEdgeStyle;rounded=0;orthogonalLoop=1;jettySize=auto;html=1;exitX=1;exitY=0.25;exitDx=0;exitDy=0;entryX=0;entryY=0.5;entryDx=0;entryDy=0;" edge="1" parent="1" source="JUTJd4A7Ja9mCz1lMSgx-57" target="JUTJd4A7Ja9mCz1lMSgx-61">
          <mxGeometry relative="1" as="geometry" />
        </mxCell>
        <mxCell id="JUTJd4A7Ja9mCz1lMSgx-57" value="passwordToken" style="rounded=1;arcSize=10;whiteSpace=wrap;html=1;align=center;" vertex="1" parent="1">
          <mxGeometry x="-1500" y="470" width="100" height="40" as="geometry" />
        </mxCell>
        <mxCell id="JUTJd4A7Ja9mCz1lMSgx-58" value="email" style="ellipse;whiteSpace=wrap;html=1;align=center;" vertex="1" parent="1">
          <mxGeometry x="-1615" y="440" width="100" height="40" as="geometry" />
        </mxCell>
        <mxCell id="JUTJd4A7Ja9mCz1lMSgx-59" value="token" style="ellipse;whiteSpace=wrap;html=1;align=center;" vertex="1" parent="1">
          <mxGeometry x="-1535" y="390" width="100" height="40" as="geometry" />
        </mxCell>
        <mxCell id="JUTJd4A7Ja9mCz1lMSgx-60" value="expires" style="ellipse;whiteSpace=wrap;html=1;align=center;" vertex="1" parent="1">
          <mxGeometry x="-1425" y="405" width="100" height="40" as="geometry" />
        </mxCell>
        <mxCell id="JUTJd4A7Ja9mCz1lMSgx-61" value="&amp;nbsp; &amp;nbsp;id&amp;nbsp; &amp;nbsp;" style="ellipse;whiteSpace=wrap;html=1;align=center;fontStyle=4;" vertex="1" parent="1">
          <mxGeometry x="-1385" y="460" width="100" height="40" as="geometry" />
        </mxCell>
        <mxCell id="JUTJd4A7Ja9mCz1lMSgx-62" style="edgeStyle=orthogonalEdgeStyle;rounded=0;orthogonalLoop=1;jettySize=auto;html=1;exitX=0;exitY=0.25;exitDx=0;exitDy=0;entryX=0.72;entryY=0.94;entryDx=0;entryDy=0;entryPerimeter=0;" edge="1" parent="1" source="JUTJd4A7Ja9mCz1lMSgx-57" target="JUTJd4A7Ja9mCz1lMSgx-58">
          <mxGeometry relative="1" as="geometry" />
        </mxCell>
        <mxCell id="JUTJd4A7Ja9mCz1lMSgx-63" style="edgeStyle=orthogonalEdgeStyle;rounded=0;orthogonalLoop=1;jettySize=auto;html=1;exitX=0.25;exitY=0;exitDx=0;exitDy=0;entryX=0.615;entryY=1.048;entryDx=0;entryDy=0;entryPerimeter=0;" edge="1" parent="1" source="JUTJd4A7Ja9mCz1lMSgx-57" target="JUTJd4A7Ja9mCz1lMSgx-59">
          <mxGeometry relative="1" as="geometry" />
        </mxCell>
        <mxCell id="JUTJd4A7Ja9mCz1lMSgx-64" style="edgeStyle=orthogonalEdgeStyle;rounded=0;orthogonalLoop=1;jettySize=auto;html=1;exitX=0.75;exitY=0;exitDx=0;exitDy=0;entryX=0.049;entryY=0.839;entryDx=0;entryDy=0;entryPerimeter=0;" edge="1" parent="1" source="JUTJd4A7Ja9mCz1lMSgx-57" target="JUTJd4A7Ja9mCz1lMSgx-60">
          <mxGeometry relative="1" as="geometry" />
        </mxCell>
        <mxCell id="JUTJd4A7Ja9mCz1lMSgx-65" style="edgeStyle=orthogonalEdgeStyle;rounded=0;orthogonalLoop=1;jettySize=auto;html=1;exitX=1;exitY=0.25;exitDx=0;exitDy=0;entryX=0;entryY=0.5;entryDx=0;entryDy=0;" edge="1" parent="1" source="JUTJd4A7Ja9mCz1lMSgx-66" target="JUTJd4A7Ja9mCz1lMSgx-70">
          <mxGeometry relative="1" as="geometry" />
        </mxCell>
        <mxCell id="JUTJd4A7Ja9mCz1lMSgx-66" value="twofactorToken" style="rounded=1;arcSize=10;whiteSpace=wrap;html=1;align=center;" vertex="1" parent="1">
          <mxGeometry x="-1510" y="650" width="100" height="40" as="geometry" />
        </mxCell>
        <mxCell id="JUTJd4A7Ja9mCz1lMSgx-67" value="email" style="ellipse;whiteSpace=wrap;html=1;align=center;" vertex="1" parent="1">
          <mxGeometry x="-1625" y="620" width="100" height="40" as="geometry" />
        </mxCell>
        <mxCell id="JUTJd4A7Ja9mCz1lMSgx-68" value="token" style="ellipse;whiteSpace=wrap;html=1;align=center;" vertex="1" parent="1">
          <mxGeometry x="-1545" y="570" width="100" height="40" as="geometry" />
        </mxCell>
        <mxCell id="JUTJd4A7Ja9mCz1lMSgx-69" value="expires" style="ellipse;whiteSpace=wrap;html=1;align=center;" vertex="1" parent="1">
          <mxGeometry x="-1435" y="585" width="100" height="40" as="geometry" />
        </mxCell>
        <mxCell id="JUTJd4A7Ja9mCz1lMSgx-70" value="&amp;nbsp; &amp;nbsp;id&amp;nbsp; &amp;nbsp;" style="ellipse;whiteSpace=wrap;html=1;align=center;fontStyle=4;" vertex="1" parent="1">
          <mxGeometry x="-1395" y="640" width="100" height="40" as="geometry" />
        </mxCell>
        <mxCell id="JUTJd4A7Ja9mCz1lMSgx-71" style="edgeStyle=orthogonalEdgeStyle;rounded=0;orthogonalLoop=1;jettySize=auto;html=1;exitX=0;exitY=0.25;exitDx=0;exitDy=0;entryX=0.72;entryY=0.94;entryDx=0;entryDy=0;entryPerimeter=0;" edge="1" parent="1" source="JUTJd4A7Ja9mCz1lMSgx-66" target="JUTJd4A7Ja9mCz1lMSgx-67">
          <mxGeometry relative="1" as="geometry" />
        </mxCell>
        <mxCell id="JUTJd4A7Ja9mCz1lMSgx-72" style="edgeStyle=orthogonalEdgeStyle;rounded=0;orthogonalLoop=1;jettySize=auto;html=1;exitX=0.25;exitY=0;exitDx=0;exitDy=0;entryX=0.615;entryY=1.048;entryDx=0;entryDy=0;entryPerimeter=0;" edge="1" parent="1" source="JUTJd4A7Ja9mCz1lMSgx-66" target="JUTJd4A7Ja9mCz1lMSgx-68">
          <mxGeometry relative="1" as="geometry" />
        </mxCell>
        <mxCell id="JUTJd4A7Ja9mCz1lMSgx-73" style="edgeStyle=orthogonalEdgeStyle;rounded=0;orthogonalLoop=1;jettySize=auto;html=1;exitX=0.75;exitY=0;exitDx=0;exitDy=0;entryX=0.049;entryY=0.839;entryDx=0;entryDy=0;entryPerimeter=0;" edge="1" parent="1" source="JUTJd4A7Ja9mCz1lMSgx-66" target="JUTJd4A7Ja9mCz1lMSgx-69">
          <mxGeometry relative="1" as="geometry" />
        </mxCell>
        <mxCell id="JUTJd4A7Ja9mCz1lMSgx-74" value="name" style="ellipse;whiteSpace=wrap;html=1;align=center;" vertex="1" parent="1">
          <mxGeometry x="-450" y="520" width="100" height="40" as="geometry" />
        </mxCell>
        <mxCell id="JUTJd4A7Ja9mCz1lMSgx-80" style="edgeStyle=orthogonalEdgeStyle;rounded=0;orthogonalLoop=1;jettySize=auto;html=1;exitX=0;exitY=0.75;exitDx=0;exitDy=0;" edge="1" parent="1" source="JUTJd4A7Ja9mCz1lMSgx-6" target="JUTJd4A7Ja9mCz1lMSgx-74">
          <mxGeometry relative="1" as="geometry">
            <mxPoint x="-330" y="540" as="targetPoint" />
            <Array as="points">
              <mxPoint x="-330" y="513" />
              <mxPoint x="-330" y="540" />
            </Array>
          </mxGeometry>
        </mxCell>
        <mxCell id="JUTJd4A7Ja9mCz1lMSgx-81" value="has" style="shape=rhombus;perimeter=rhombusPerimeter;whiteSpace=wrap;html=1;align=center;" vertex="1" parent="1">
          <mxGeometry x="-500" y="650" width="120" height="60" as="geometry" />
        </mxCell>
        <mxCell id="JUTJd4A7Ja9mCz1lMSgx-82" value="" style="edgeStyle=orthogonalEdgeStyle;fontSize=12;html=1;endArrow=ERmandOne;rounded=0;exitX=1;exitY=0.5;exitDx=0;exitDy=0;" edge="1" parent="1" source="JUTJd4A7Ja9mCz1lMSgx-81">
          <mxGeometry width="100" height="100" relative="1" as="geometry">
            <mxPoint x="-530" y="610" as="sourcePoint" />
            <mxPoint x="-270" y="520" as="targetPoint" />
          </mxGeometry>
        </mxCell>
        <mxCell id="JUTJd4A7Ja9mCz1lMSgx-83" value="" style="edgeStyle=orthogonalEdgeStyle;fontSize=12;html=1;endArrow=ERzeroToOne;endFill=1;rounded=0;" edge="1" parent="1" source="JUTJd4A7Ja9mCz1lMSgx-81" target="JUTJd4A7Ja9mCz1lMSgx-21">
          <mxGeometry width="100" height="100" relative="1" as="geometry">
            <mxPoint x="-470" y="760" as="sourcePoint" />
            <mxPoint x="-370" y="660" as="targetPoint" />
            <Array as="points">
              <mxPoint x="-520" y="710" />
              <mxPoint x="-520" y="710" />
            </Array>
          </mxGeometry>
        </mxCell>
        <mxCell id="JUTJd4A7Ja9mCz1lMSgx-84" style="edgeStyle=orthogonalEdgeStyle;fontSize=12;html=1;endArrow=ERmandOne;rounded=0;exitX=0.5;exitY=1;exitDx=0;exitDy=0;" edge="1" parent="1" source="JUTJd4A7Ja9mCz1lMSgx-86" target="JUTJd4A7Ja9mCz1lMSgx-6">
          <mxGeometry relative="1" as="geometry">
            <Array as="points">
              <mxPoint x="-580" y="460" />
              <mxPoint x="-490" y="460" />
              <mxPoint x="-490" y="505" />
            </Array>
          </mxGeometry>
        </mxCell>
        <mxCell id="JUTJd4A7Ja9mCz1lMSgx-85" style="fontSize=12;html=1;endArrow=ERmandOne;rounded=0;exitX=0.5;exitY=0;exitDx=0;exitDy=0;edgeStyle=orthogonalEdgeStyle;" edge="1" parent="1" source="JUTJd4A7Ja9mCz1lMSgx-86" target="JUTJd4A7Ja9mCz1lMSgx-41">
          <mxGeometry relative="1" as="geometry" />
        </mxCell>
        <mxCell id="JUTJd4A7Ja9mCz1lMSgx-86" value="has" style="shape=rhombus;perimeter=rhombusPerimeter;whiteSpace=wrap;html=1;align=center;" vertex="1" parent="1">
          <mxGeometry x="-640" y="370" width="120" height="60" as="geometry" />
        </mxCell>
        <mxCell id="JUTJd4A7Ja9mCz1lMSgx-114" style="edgeStyle=orthogonalEdgeStyle;rounded=0;orthogonalLoop=1;jettySize=auto;html=1;entryX=0.1;entryY=0.75;entryDx=0;entryDy=0;entryPerimeter=0;exitX=0.897;exitY=0.006;exitDx=0;exitDy=0;exitPerimeter=0;" edge="1" parent="1" source="JUTJd4A7Ja9mCz1lMSgx-21" target="JUTJd4A7Ja9mCz1lMSgx-31">
          <mxGeometry relative="1" as="geometry">
            <Array as="points">
              <mxPoint x="-690" y="630" />
            </Array>
          </mxGeometry>
        </mxCell>
        <mxCell id="JUTJd4A7Ja9mCz1lMSgx-115" style="edgeStyle=orthogonalEdgeStyle;rounded=0;orthogonalLoop=1;jettySize=auto;html=1;entryX=0.643;entryY=1.008;entryDx=0;entryDy=0;entryPerimeter=0;" edge="1" parent="1" source="JUTJd4A7Ja9mCz1lMSgx-6" target="JUTJd4A7Ja9mCz1lMSgx-8">
          <mxGeometry relative="1" as="geometry">
            <Array as="points">
              <mxPoint x="-235" y="425" />
              <mxPoint x="-236" y="425" />
            </Array>
          </mxGeometry>
        </mxCell>
        <mxCell id="JUTJd4A7Ja9mCz1lMSgx-116" style="edgeStyle=orthogonalEdgeStyle;rounded=0;orthogonalLoop=1;jettySize=auto;html=1;entryX=0.65;entryY=1;entryDx=0;entryDy=0;entryPerimeter=0;" edge="1" parent="1" source="JUTJd4A7Ja9mCz1lMSgx-6" target="JUTJd4A7Ja9mCz1lMSgx-11">
          <mxGeometry relative="1" as="geometry">
            <Array as="points">
              <mxPoint x="-270" y="440" />
            </Array>
          </mxGeometry>
        </mxCell>
        <mxCell id="JUTJd4A7Ja9mCz1lMSgx-117" style="edgeStyle=orthogonalEdgeStyle;rounded=0;orthogonalLoop=1;jettySize=auto;html=1;entryX=0.382;entryY=1.041;entryDx=0;entryDy=0;entryPerimeter=0;" edge="1" parent="1" source="JUTJd4A7Ja9mCz1lMSgx-21" target="JUTJd4A7Ja9mCz1lMSgx-29">
          <mxGeometry relative="1" as="geometry">
            <Array as="points">
              <mxPoint x="-712" y="640" />
              <mxPoint x="-712" y="640" />
            </Array>
          </mxGeometry>
        </mxCell>
      </root>
    </mxGraphModel>
  </diagram>
</mxfile>
